<svg width="2479" height="518" viewBox="0 0 2479 518" fill="none" xmlns="http://www.w3.org/2000/svg">
<path d="M1901.29 128.764H1959.55V24.9082H2011.99C2081.36 24.9082 2124.57 68.1245 2141.74 128.789H2199.9C2176.21 59.0969 2111.58 7.96582 2017.84 7.96582H1880.68V8.49676C1898.68 35.5037 1901.34 50.8533 1901.34 105.398V128.764H1901.29Z" fill="white"/>
<path d="M2016.75 361.71C1997.68 361.71 1978.09 361.179 1959.55 357.462V245.338H1901.29V281.196C1901.29 335.741 1898.63 351.09 1880.63 378.097V378.628H2017.79C2112.49 378.628 2180.23 321.605 2202.28 245.363H2145.18C2131.71 312.451 2090.29 361.71 2016.72 361.71H2016.75Z" fill="white"/>
<path d="M1704.78 0L1681.49 7.40964L1635.26 128.738H1652.94L1671.96 77.8599L1691.63 128.738H1755.66L1704.78 0Z" fill="white"/>
<path d="M1801.73 245.338H1737.3L1752.45 285.444C1772.58 336.828 1774.14 351.115 1756.67 378.122V378.653H1862.57V378.122C1846.16 352.177 1837.69 336.828 1817.56 285.444L1801.71 245.338H1801.73Z" fill="white"/>
<path d="M1575.59 285.444C1556.52 336.828 1548.58 351.646 1531.64 378.122V378.653H1590.94V378.122C1573.46 351.115 1575.06 336.828 1594.12 285.444L1609.09 245.312H1590.89L1575.61 285.444H1575.59Z" fill="white"/>
<path d="M2409.01 213.324L2408.98 213.425H2409.01V213.324Z" fill="white"/>
<path d="M2241.65 128.789H2298.85V24.9082H2358.18C2403.72 24.9082 2421.19 36.5658 2460.92 66.7336H2461.45L2456.7 7.96582H2221.02V8.49676C2239.02 35.5037 2241.68 50.8533 2241.68 105.398V128.789H2241.65Z" fill="white"/>
<path d="M2472.53 319.885C2433.36 350.053 2415.88 361.711 2370.32 361.711H2325.84C2302.52 361.711 2298.83 346.892 2298.83 315.637V245.389H2241.63V281.221C2241.63 335.766 2238.97 351.115 2220.97 378.122V378.653H2468.28L2473.06 319.885H2472.53V319.885Z" fill="white"/>
<path d="M124.092 24.9082C179.168 24.9082 207.768 59.3245 207.768 105.398C207.768 113.566 206.554 121.228 204.708 128.586H264.538C266.662 121.025 268.129 113.187 268.129 104.867C268.129 48.7292 228.959 7.96582 138.91 7.96582H6V8.49676C24.0046 35.5037 26.6602 50.8533 26.6602 105.398V281.221C26.6602 335.766 24.0046 351.115 6 378.122V378.653H104.494V378.122C86.4895 351.115 83.8346 335.766 83.8346 281.221V24.9082H124.092Z" fill="white"/>
<path d="M266.029 319.329L236.367 263.722C232.65 256.843 228.908 250.826 225.14 245.161H160.379C165.563 253.026 170.772 261.749 175.981 272.193L231.588 378.628H310.485V378.096C289.825 361.154 283.478 351.62 266.004 319.303L266.029 319.329Z" fill="white"/>
<path d="M969.632 128.662H1026.83V24.9082H1086.16C1131.7 24.9082 1149.17 36.5658 1188.9 66.7336H1189.43L1184.68 7.96582H948.997V8.49676C967.002 35.5037 969.657 50.8533 969.657 105.398V128.662H969.632Z" fill="white"/>
<path d="M1098.32 361.71H1053.84C1030.52 361.71 1026.83 346.892 1026.83 315.637V245.262H969.63V281.221C969.63 335.766 966.975 351.115 948.97 378.122V378.653H1196.28L1201.06 319.885H1200.53C1161.36 350.053 1143.88 361.71 1098.32 361.71V361.71Z" fill="white"/>
<path d="M350.869 128.612H408.068V24.9082H467.392C512.935 24.9082 530.409 36.5658 570.135 66.7336H570.666L565.912 7.96582H330.234V8.49676C348.238 35.5037 350.894 50.8533 350.894 105.398V128.612H350.869Z" fill="white"/>
<path d="M479.556 361.71H435.076C411.761 361.71 408.069 346.892 408.069 315.637V245.187H350.869V281.221C350.869 335.766 348.214 351.115 330.209 378.122V378.653H577.52L582.274 319.885H581.743C542.573 350.053 525.099 361.71 479.531 361.71H479.556Z" fill="white"/>
<path d="M860.996 8.49676C878.469 35.5037 881.655 50.8533 881.655 105.398V128.662H900.722V105.398C900.722 50.8533 903.377 35.5037 920.851 8.49676V7.96582H861.021V8.49676H860.996Z" fill="white"/>
<path d="M602.029 7.96582V8.49676C620.033 35.5037 622.688 50.8533 622.688 105.398V128.637H641.755V77.8598L682.164 128.637H758.76L661.884 7.96582H602.029V7.96582Z" fill="white"/>
<path d="M641.755 245.237H622.688V281.221C622.688 335.766 620.033 351.115 602.029 378.122V378.653H661.884V378.122C644.41 351.115 641.755 335.766 641.755 281.221V245.237Z" fill="white"/>
<path d="M881.657 281.752L852.349 245.237H774.944L881.101 378.653H900.698V245.262L881.657 245.237V281.752Z" fill="white"/>
<path d="M1398.4 19.0671C1445 19.0671 1479.95 40.2583 1510.67 82.0836H1512.27L1506.98 18.0052C1475.73 7.96614 1446.09 1.59375 1397.87 1.59375C1305.24 1.59375 1239.39 55.1271 1214.56 128.663H1275.93C1292.44 64.0029 1334.85 19.0418 1398.42 19.0418L1398.4 19.0671Z" fill="white"/>
<path d="M1470.11 245.439L1451.86 245.312V245.844C1469.33 272.851 1472.52 287.669 1472.52 342.745V352.683C1454.51 362.747 1433.35 367.526 1405.28 367.526C1336.9 367.526 1288.73 317.988 1273.38 245.262H1209.22C1227.91 325.676 1293.28 385 1397.34 385C1463.01 385 1501.65 366.464 1526.55 352.151V245.287H1470.11C1470.11 245.287 1470.11 245.388 1470.11 245.414V245.439Z" fill="white"/>
<path d="M54.3206 503.993C45.3145 503.993 37.5005 502.47 30.8784 499.424C24.3225 496.378 19.3228 492.173 15.8793 486.809C12.4358 481.379 10.7141 475.187 10.7141 468.234C10.7141 461.281 12.4358 455.122 15.8793 449.758C19.3228 444.328 24.3225 440.09 30.8784 437.044C37.5005 433.998 45.3145 432.475 54.3206 432.475C62.6645 432.475 69.5845 433.7 75.0809 436.15C80.5772 438.534 84.6498 441.448 87.2987 444.891C90.0137 448.268 91.7024 451.579 92.3646 454.824H83.4247C82.8287 452.374 81.405 449.99 79.1535 447.672C76.9682 445.288 73.8558 443.302 69.8163 441.712C65.8431 440.123 61.0089 439.328 55.3139 439.328H53.3273C46.3741 439.328 40.2486 440.587 34.951 443.103C29.7195 445.553 25.68 448.997 22.8325 453.434C19.985 457.804 18.5613 462.738 18.5613 468.234C18.5613 473.73 19.985 478.697 22.8325 483.134C25.68 487.504 29.7195 490.948 34.951 493.464C40.2486 495.914 46.3741 497.139 53.3273 497.139H55.3139C60.9427 497.139 65.7437 496.345 69.717 494.755C73.6902 493.166 76.7695 491.213 78.9548 488.895C81.2063 486.511 82.6963 484.094 83.4247 481.644H92.3646C91.7024 484.889 90.0137 488.233 87.2987 491.676C84.6498 495.053 80.5772 497.967 75.0809 500.417C69.5845 502.801 62.6645 503.993 54.3206 503.993ZM233.151 503.993C224.807 503.993 217.225 502.603 210.404 499.821C203.649 496.974 198.285 492.868 194.312 487.504C190.405 482.14 188.452 475.717 188.452 468.234C188.452 460.751 190.405 454.328 194.312 448.964C198.285 443.6 203.649 439.527 210.404 436.746C217.225 433.898 224.807 432.475 233.151 432.475C241.428 432.475 248.944 433.898 255.699 436.746C262.52 439.527 267.884 443.633 271.791 449.063C275.764 454.427 277.751 460.817 277.751 468.234C277.751 475.651 275.764 482.074 271.791 487.504C267.884 492.868 262.52 496.974 255.699 499.821C248.944 502.603 241.428 503.993 233.151 503.993ZM234.144 497.139C240.766 497.139 246.759 496.047 252.123 493.861C257.553 491.61 261.858 488.299 265.036 483.928C268.281 479.558 269.903 474.326 269.903 468.234C269.903 462.142 268.281 456.91 265.036 452.54C261.858 448.169 257.553 444.891 252.123 442.706C246.759 440.454 240.766 439.328 234.144 439.328H232.157C225.535 439.328 219.509 440.454 214.079 442.706C208.649 444.891 204.311 448.169 201.067 452.54C197.888 456.91 196.299 462.142 196.299 468.234C196.299 474.326 197.888 479.558 201.067 483.928C204.311 488.299 208.649 491.61 214.079 493.861C219.509 496.047 225.535 497.139 232.157 497.139H234.144ZM445.262 493.961V433.468H452.911V503H443.176L387.153 442.507V503H379.505V433.468H389.239L445.262 493.961ZM592.045 503H584.396V440.322H550.127V433.468H626.314V440.322H592.045V503ZM723.533 503V433.468H769.424C774.06 433.468 778.166 434.329 781.742 436.051C785.318 437.706 788.066 440.024 789.986 443.004C791.973 445.917 792.966 449.229 792.966 452.937C792.966 456.976 791.873 460.519 789.688 463.565C787.503 466.545 784.854 468.631 781.742 469.823C784.457 470.022 786.708 471.048 788.496 472.903C790.35 474.691 791.277 477.339 791.277 480.849V503H783.629V482.24C783.629 479.194 782.934 477.108 781.543 475.982C780.219 474.856 777.835 474.293 774.391 474.293H731.182V503H723.533ZM768.332 467.439C773.563 467.439 777.669 466.214 780.649 463.764C783.629 461.248 785.119 457.937 785.119 453.831C785.119 449.46 783.662 446.116 780.748 443.798C777.835 441.481 773.696 440.322 768.332 440.322H731.182V467.439H768.332ZM974.564 503H965.823L955.195 484.028H905.529L894.801 503H886.358L926.091 433.468H935.03L974.564 503ZM930.362 439.924L909.403 477.174H951.321L930.362 439.924ZM1106.39 503.993C1097.38 503.993 1089.57 502.47 1082.95 499.424C1076.39 496.378 1071.39 492.173 1067.95 486.809C1064.5 481.379 1062.78 475.187 1062.78 468.234C1062.78 461.281 1064.5 455.122 1067.95 449.758C1071.39 444.328 1076.39 440.09 1082.95 437.044C1089.57 433.998 1097.38 432.475 1106.39 432.475C1114.73 432.475 1121.65 433.7 1127.15 436.15C1132.65 438.534 1136.72 441.448 1139.37 444.891C1142.08 448.268 1143.77 451.579 1144.43 454.824H1135.49C1134.9 452.374 1133.47 449.99 1131.22 447.672C1129.04 445.288 1125.92 443.302 1121.88 441.712C1117.91 440.123 1113.08 439.328 1107.38 439.328H1105.4C1098.44 439.328 1092.32 440.587 1087.02 443.103C1081.79 445.553 1077.75 448.997 1074.9 453.434C1072.05 457.804 1070.63 462.738 1070.63 468.234C1070.63 473.73 1072.05 478.697 1074.9 483.134C1077.75 487.504 1081.79 490.948 1087.02 493.464C1092.32 495.914 1098.44 497.139 1105.4 497.139H1107.38C1113.01 497.139 1117.81 496.345 1121.79 494.755C1125.76 493.166 1128.84 491.213 1131.02 488.895C1133.27 486.511 1134.76 484.094 1135.49 481.644H1144.43C1143.77 484.889 1142.08 488.233 1139.37 491.676C1136.72 495.053 1132.65 497.967 1127.15 500.417C1121.65 502.801 1114.73 503.993 1106.39 503.993ZM1275.35 503H1267.7V440.322H1233.43V433.468H1309.62V440.322H1275.35V503ZM1548.82 503.993C1524.58 503.993 1512.26 496.345 1511.86 481.048H1519.81C1520.21 485.749 1522.56 489.623 1526.86 492.67C1531.17 495.649 1538.12 497.139 1547.72 497.139H1549.71C1558.85 497.139 1565.37 495.881 1569.28 493.365C1573.25 490.782 1575.24 487.703 1575.24 484.127C1575.24 481.015 1574.01 478.531 1571.56 476.677C1569.11 474.823 1564.74 473.532 1558.45 472.803L1541.47 470.717C1535.11 469.923 1530.11 468.83 1526.47 467.439C1522.82 466.049 1520.18 464.161 1518.52 461.777C1516.93 459.393 1516.14 456.281 1516.14 452.44C1516.14 448.798 1517.29 445.487 1519.61 442.507C1521.93 439.461 1525.51 437.044 1530.34 435.256C1535.24 433.402 1541.4 432.475 1548.82 432.475C1560.07 432.475 1568.78 434.428 1574.94 438.335C1581.1 442.176 1584.48 447.341 1585.07 453.831H1577.03C1576.3 449.593 1573.58 446.116 1568.88 443.401C1564.25 440.686 1557.86 439.328 1549.71 439.328H1547.72C1539.91 439.328 1533.98 440.554 1529.94 443.004C1525.97 445.388 1523.98 448.401 1523.98 452.043C1523.98 454.162 1524.48 455.917 1525.47 457.307C1526.47 458.698 1528.25 459.89 1530.84 460.883C1533.42 461.811 1537.13 462.572 1541.96 463.168L1558.45 465.155C1566.8 466.148 1572.99 468.135 1577.03 471.115C1581.07 474.095 1583.09 478.233 1583.09 483.531C1583.09 490.087 1580.2 495.153 1574.44 498.729C1568.68 502.238 1560.14 503.993 1548.82 503.993ZM1725.7 503.993C1717.35 503.993 1709.77 502.603 1702.95 499.821C1696.19 496.974 1690.83 492.868 1686.86 487.504C1682.95 482.14 1681 475.717 1681 468.234C1681 460.751 1682.95 454.328 1686.86 448.964C1690.83 443.6 1696.19 439.527 1702.95 436.746C1709.77 433.898 1717.35 432.475 1725.7 432.475C1733.97 432.475 1741.49 433.898 1748.24 436.746C1755.07 439.527 1760.43 443.633 1764.34 449.063C1768.31 454.427 1770.3 460.817 1770.3 468.234C1770.3 475.651 1768.31 482.074 1764.34 487.504C1760.43 492.868 1755.07 496.974 1748.24 499.821C1741.49 502.603 1733.97 503.993 1725.7 503.993ZM1726.69 497.139C1733.31 497.139 1739.3 496.047 1744.67 493.861C1750.1 491.61 1754.4 488.299 1757.58 483.928C1760.83 479.558 1762.45 474.326 1762.45 468.234C1762.45 462.142 1760.83 456.91 1757.58 452.54C1754.4 448.169 1750.1 444.891 1744.67 442.706C1739.3 440.454 1733.31 439.328 1726.69 439.328H1724.7C1718.08 439.328 1712.05 440.454 1706.62 442.706C1701.19 444.891 1696.86 448.169 1693.61 452.54C1690.43 456.91 1688.84 462.142 1688.84 468.234C1688.84 474.326 1690.43 479.558 1693.61 483.928C1696.86 488.299 1701.19 491.61 1706.62 493.861C1712.05 496.047 1718.08 497.139 1724.7 497.139H1726.69ZM1906.02 503.993C1894.5 503.993 1885.79 501.212 1879.9 495.649C1874 490.087 1871.06 482.405 1871.06 472.605V433.468H1878.71V471.611C1878.71 480.021 1881.02 486.379 1885.66 490.683C1890.29 494.987 1896.75 497.139 1905.03 497.139H1907.01C1915.23 497.139 1921.65 494.987 1926.29 490.683C1930.99 486.379 1933.34 480.021 1933.34 471.611V433.468H1940.99V472.605C1940.99 482.405 1938.04 490.087 1932.15 495.649C1926.25 501.212 1917.54 503.993 1906.02 503.993ZM2046.97 503V433.468H2092.87C2097.5 433.468 2101.61 434.329 2105.18 436.051C2108.76 437.706 2111.51 440.024 2113.43 443.004C2115.41 445.917 2116.41 449.229 2116.41 452.937C2116.41 456.976 2115.31 460.519 2113.13 463.565C2110.94 466.545 2108.3 468.631 2105.18 469.823C2107.9 470.022 2110.15 471.048 2111.94 472.903C2113.79 474.691 2114.72 477.339 2114.72 480.849V503H2107.07V482.24C2107.07 479.194 2106.37 477.108 2104.98 475.982C2103.66 474.856 2101.28 474.293 2097.83 474.293H2054.62V503H2046.97ZM2091.77 467.439C2097 467.439 2101.11 466.214 2104.09 463.764C2107.07 461.248 2108.56 457.937 2108.56 453.831C2108.56 449.46 2107.1 446.116 2104.19 443.798C2101.28 441.481 2097.14 440.322 2091.77 440.322H2054.62V467.439H2091.77ZM2259.47 503.993C2250.46 503.993 2242.64 502.47 2236.02 499.424C2229.47 496.378 2224.47 492.173 2221.02 486.809C2217.58 481.379 2215.86 475.187 2215.86 468.234C2215.86 461.281 2217.58 455.122 2221.02 449.758C2224.47 444.328 2229.47 440.09 2236.02 437.044C2242.64 433.998 2250.46 432.475 2259.47 432.475C2267.81 432.475 2274.73 433.7 2280.23 436.15C2285.72 438.534 2289.79 441.448 2292.44 444.891C2295.16 448.268 2296.85 451.579 2297.51 454.824H2288.57C2287.97 452.374 2286.55 449.99 2284.3 447.672C2282.11 445.288 2279 443.302 2274.96 441.712C2270.99 440.123 2266.15 439.328 2260.46 439.328H2258.47C2251.52 439.328 2245.39 440.587 2240.1 443.103C2234.86 445.553 2230.82 448.997 2227.98 453.434C2225.13 457.804 2223.71 462.738 2223.71 468.234C2223.71 473.73 2225.13 478.697 2227.98 483.134C2230.82 487.504 2234.86 490.948 2240.1 493.464C2245.39 495.914 2251.52 497.139 2258.47 497.139H2260.46C2266.09 497.139 2270.89 496.345 2274.86 494.755C2278.83 493.166 2281.91 491.213 2284.1 488.895C2286.35 486.511 2287.84 484.094 2288.57 481.644H2297.51C2296.85 484.889 2295.16 488.233 2292.44 491.676C2289.79 495.053 2285.72 497.967 2280.23 500.417C2274.73 502.801 2267.81 503.993 2259.47 503.993ZM2406.51 470.519V496.146H2468.49V503H2398.86V433.468H2467.5V440.322H2406.51V463.665H2461.54V470.519H2406.51Z" fill="white"/>
</svg>
